<?xml version="1.0" standalone="no"?>
<!DOCTYPE svg PUBLIC "-//W3C//DTD SVG 20010904//EN"
 "http://www.w3.org/TR/2001/REC-SVG-20010904/DTD/svg10.dtd">
<svg version="1.0" xmlns="http://www.w3.org/2000/svg"
 width="192.000000pt" height="192.000000pt" viewBox="0 0 192.000000 192.000000"
 preserveAspectRatio="xMidYMid meet">
<metadata>
Created by potrace 1.14, written by Peter Selinger 2001-2017
</metadata>
<g transform="translate(0.000000,192.000000) scale(0.100000,-0.100000)"
fill="#000000" stroke="none">
<path d="M0 960 l0 -960 960 0 960 0 0 960 0 960 -960 0 -960 0 0 -960z m889
698 c-12 -24 -98 -186 -190 -360 -93 -175 -169 -322 -169 -328 0 -12 303 -587
323 -614 10 -13 39 35 179 299 l167 314 -94 178 c-52 98 -95 185 -95 193 1 8
11 32 24 53 l24 39 63 -119 c34 -65 89 -167 121 -228 32 -60 57 -115 56 -121
-2 -6 -88 -172 -192 -368 l-190 -356 -55 0 -56 1 -193 364 -192 365 181 342
c100 189 188 353 196 366 11 18 22 22 63 22 l50 0 -21 -42z m447 -314 c104
-196 190 -362 192 -369 2 -6 -84 -175 -189 -373 l-192 -362 -53 0 -53 0 24 43
c12 23 100 187 194 364 l171 322 -168 315 c-92 173 -170 312 -174 308 -12 -13
-328 -612 -328 -622 0 -6 43 -91 95 -189 l95 -178 -26 -47 c-15 -26 -28 -46
-29 -44 -2 2 -57 105 -124 230 l-122 227 172 323 c242 455 210 408 272 408
l53 0 190 -356z"/>
</g>
</svg>
