<svg xmlns="http://www.w3.org/2000/svg" x="0px" y="0px" viewBox="0 0 30 30">
  <path fill="#1DA1F2" d="M14.9 0h.3C23.4 0 30 6.6 30 14.9v.3C30 23.4 23.4 30 15.1 30h-.3C6.6 30 0 23.4 0 15.1v-.3C0 6.6 6.6 0 14.9 0z"/>
  <path fill="#FFF" d="M12.372 21.941c6.2 0 9.7-5.3 9.7-9.9v-.4c.6-.4 1.2-1.1 1.7-1.8-.6.3-1.2.4-2 .5.7-.4 1.2-1.1 1.5-2-.6.4-1.4.7-2.1.8-.6-.6-1.5-1.1-2.5-1.1-1.9 0-3.4 1.5-3.4 3.5 0 .3 0 .5.1.8-2.8-.2-5.3-1.5-7-3.6-.3.5-.5 1.1-.5 1.7 0 1.2.6 2.2 1.5 2.9-.5 0-1.1-.2-1.5-.4v.1c0 1.7 1.2 3.1 2.8 3.4h-.9c-.2 0-.4 0-.6-.1.4 1.4 1.7 2.4 3.2 2.4-1.2.9-2.7 1.6-4.2 1.6-.3 0-.5 0-.8-.1 1.3 1 3.1 1.7 5 1.7"/>
  <g>
    <circle fill="#FFF" cx="19.7" cy="10.3" r="1.1"/>
  </g>
</svg>