<svg xmlns="http://www.w3.org/2000/svg" x="0px" y="0px" viewBox="0 0 30 30" enable-background="new 0 0 30 30">
  <path fill="#FF0002" d="M14.9 0h.3C23.4 0 30 6.6 30 14.9v.3C30 23.4 23.4 30 15.1 30h-.3C6.6 30 0 23.4 0 15.1v-.3C0 6.6 6.6 0 14.9 0z"/>
  <g transform="translate(3 6)">
    <defs>
      <filter id="a" filterUnits="userSpaceOnUse" x="2.4" y="2.3" width="19.2" height="13.5">
        <feColorMatrix values="1 0 0 0 0 0 1 0 0 0 0 0 1 0 0 0 0 0 1 0"/>
      </filter>
    </defs>
    <mask maskUnits="userSpaceOnUse" x="2.4" y="2.3" width="19.2" height="13.5" id="b">
      <g filter="url(#a)">
        <path fill="#FFF" d="M10 11.5V6.1l5.2 2.7-5.2 2.7zm11.4-6.3s-.2-1.3-.8-1.9c-.7-.8-1.5-.8-1.9-.8-2.7-.2-6.7-.2-6.7-.2s-4 0-6.7.2c-.4 0-1.2 0-1.9.8-.6.6-.8 1.9-.8 1.9s-.2 1.5-.2 3.1v1.5c0 1.6.2 3.1.2 3.1s.2 1.3.8 1.9c.7.8 1.7.7 2.1.8 1.5.1 6.5.2 6.5.2s4 0 6.7-.2c.4 0 1.2 0 1.9-.8.6-.6.8-1.9.8-1.9s.2-1.6.2-3.1V8.3c0-1.6-.2-3.1-.2-3.1z"/>
      </g>
    </mask>
    <path mask="url(#b)" fill="#FFF" d="M10 11.5V6.1l5.2 2.7-5.2 2.7zm11.4-6.3s-.2-1.3-.8-1.9c-.7-.8-1.5-.8-1.9-.8-2.7-.2-6.7-.2-6.7-.2s-4 0-6.7.2c-.4 0-1.2 0-1.9.8-.6.6-.8 1.9-.8 1.9s-.2 1.5-.2 3.1v1.5c0 1.6.2 3.1.2 3.1s.2 1.3.8 1.9c.7.8 1.7.7 2.1.8 1.5.1 6.5.2 6.5.2s4 0 6.7-.2c.4 0 1.2 0 1.9-.8.6-.6.8-1.9.8-1.9s.2-1.6.2-3.1V8.3c0-1.6-.2-3.1-.2-3.1z"/>
  </g>
</svg>