<svg xmlns="http://www.w3.org/2000/svg" xmlns:xlink="http://www.w3.org/1999/xlink"><defs>
    <circle id="ico-round-battery-a" cx="40" cy="40" r="40"/>
    <circle id="ico-round-battery-c" cx="40" cy="40" r="40"/>
  
    <circle id="ico-round-carpark-a" cx="40" cy="40" r="40"/>
    <circle id="ico-round-carpark-c" cx="40" cy="40" r="40"/>
  
    <filter id="ico-round-eco-a">
      <feColorMatrix in="SourceGraphic" values="0 0 0 0 0.000000 0 0 0 0 0.000000 0 0 0 0 0.000000 0 0 0 1.000000 0"/>
    </filter>
  
    <circle id="ico-round-electric-a" cx="40" cy="40" r="40"/>
    <circle id="ico-round-electric-c" cx="40" cy="40" r="40"/>
  
    <circle id="ico-round-leaf-a" cx="40" cy="40" r="40"/>
  
    <circle id="ico-round-trophy-a" cx="40" cy="40" r="40"/>
    <circle id="ico-round-trophy-c" cx="40" cy="40" r="40"/>
    <filter id="ico-round-trophy-d">
      <feColorMatrix in="SourceGraphic" values="0 0 0 0 0.000000 0 0 0 0 0.000000 0 0 0 0 0.000000 0 0 0 1.000000 0"/>
    </filter>
    <path id="ico-round-trophy-f" d="M23.117 12.43c2.98-.554 4.418-2.718 4.418-6.24v-.906H23.94v.906c0 2.415-.308 4.529-.822 6.24ZM11.045 28.735h7.295v1.71h-7.295v-1.71Zm-2.106-1.812-1.08 5.385h13.666l-1.079-5.385H8.939Zm5.753-9.763c4.83 0 7.45-3.824 7.45-10.92V1.711H7.294V6.19c0 7.045 2.62 10.97 7.397 10.97ZM6.37 12.48c-.565-1.761-.873-3.875-.873-6.29v-.906H1.798v.906c0 3.573 1.49 5.737 4.572 6.29Zm17.57-8.907h5.393V6.19c0 4.68-2.568 7.7-6.935 8.052-1.387 2.767-3.699 4.327-6.781 4.579v6.29h6.37l1.9 8.958H5.498l1.9-8.958h6.37v-6.29c-3.03-.252-5.29-1.812-6.678-4.58C2.62 13.94 0 10.922 0 6.19V3.573h5.497V0h18.442v3.573Z"/>
  
    <circle id="ico-round_carkey-a" cx="40" cy="40" r="40"/>
    <circle id="ico-round_carkey-c" cx="40" cy="40" r="40"/>
  </defs><symbol id="ico-angle-right" viewBox="0 0 185.343 185.343">
  <path d="M51.707 185.343a10.692 10.692 0 0 1-7.593-3.149 10.724 10.724 0 0 1 0-15.175l74.352-74.347L44.114 18.32c-4.194-4.194-4.194-10.987 0-15.175 4.194-4.194 10.987-4.194 15.18 0l81.934 81.934c4.194 4.194 4.194 10.987 0 15.175l-81.934 81.939a10.678 10.678 0 0 1-7.587 3.15z"/>
</symbol><symbol id="ico-angle-sides" viewBox="0 0 30 30">
  <path d="M10.249 4.787a1.444 1.444 0 0 0-2.024 0L.312 13.988c-.368.552-.368 1.288 0 2.024l7.913 9.201c.184.368.552.552 1.104.552.368 0 .736-.184 1.104-.552.552-.552.552-1.288 0-2.024l-7.177-8.281 6.993-8.281c.552-.552.552-1.288 0-1.84zm19.322 9.201-7.913-9.201c-.184-.368-.736-.552-1.104-.552-.368 0-.736.184-1.104.552-.368.552-.368 1.288 0 2.024l6.993 8.281-6.993 8.281a1.671 1.671 0 0 0 0 1.84c.184.368.736.552 1.104.552.368 0 .736-.184.92-.552l7.913-9.201c.736-.736.736-1.472.184-2.024z"/>
</symbol><symbol id="ico-calculator" viewBox="0 0 30 30">
  <path d="M4.016 3.284c0-1.904.879-2.929 2.929-2.929h16.11c1.904 0 2.929.879 2.929 2.929v23.433c0 1.904-.879 2.929-2.929 2.929H6.945c-1.904 0-2.929-.879-2.929-2.929V3.284zm2.929 24.897h16.11c1.025 0 1.465-.439 1.465-1.465V3.284c0-1.025-.439-1.465-1.465-1.465H6.945c-1.025 0-1.465.439-1.465 1.465v23.433c0 1.025.293 1.464 1.465 1.464zM8.41 4.748h13.18v7.323H8.41V4.748zM8.41 15h2.929v1.465H8.41V15zm0 4.394h2.929v1.465H8.41v-1.465zm0 4.393h2.929v1.465H8.41v-1.465zM20.126 6.213H9.874v4.394h10.252V6.213zM13.389 15h3.368v1.465h-3.368V15zm0 4.394h3.368v1.465h-3.368v-1.465zm0 4.393h3.368v1.465h-3.368v-1.465zM18.661 15h2.929v1.465h-2.929V15zm0 4.394h2.929v1.465h-2.929v-1.465zm0 4.393h2.929v1.465h-2.929v-1.465z"/>
</symbol><symbol id="ico-car-hand" viewBox="0 0 30 30">
  <path d="M19.196 11.828c0-1.572 1.177-2.752 2.784-2.752 1.607 0 2.783 1.18 2.783 2.752 0 1.573-1.176 2.752-2.783 2.752-1.099 0-2-.55-2.472-1.415h-9.057c-.47.865-1.374 1.415-2.47 1.415-1.61 0-2.785-1.18-2.785-2.752 0-1.572 1.175-2.752 2.784-2.752 1.607 0 2.785 1.18 2.785 2.752h8.431zM2.373 9.391c0-1.926.117-2.202 2.037-4.482C6.371 2.55 7.312 2 9.392 2h4.98c1.803 0 3.02.393 5.215 1.612l2.982 2.24 1.92.472c2.078.512 3.06 1.691 3.06 3.696 0 .983-.276 1.848-.784 2.555l-1.1-.786c.394-.59.511-1.022.511-1.769 0-1.376-.705-2.123-2.472-2.555l-1.921-.472L18.88 4.79c-1.412-1.061-2.626-1.454-4.51-1.454H9.392c-1.61 0-2.197.393-4 2.555-1.57 1.926-1.648 2.123-1.648 3.696v.825c0 .59.117.944.47 1.297l-.94.865c-.628-.55-.901-1.218-.901-2.162V9.391zM1.902 27.2 1 26.217l1.646-1.219c1.921-1.454 3.334-1.965 5.334-1.965 2.706 0 5.881 1.258 9.216 1.415l9.882-6.801c.393-.275.548-.472.548-.747 0-.511-.39-.944-.9-.944-.236 0-.394.04-.747.276l-4.431 2.987c-.353.826-1.138 1.337-2.275 1.337h-5.685V19.18h5.685c.667 0 1.06-.314 1.06-.904 0-.59-.393-.904-1.06-.904H9.587c-3.528 0-4.43.275-6.39 1.808l-1.295 1.022L1 19.22l1.293-1.022c2.235-1.769 3.57-2.162 7.334-2.162h9.646c1.137 0 2.04.59 2.315 1.533l3.804-2.516c.47-.314.822-.432 1.333-.432A2.28 2.28 0 0 1 29 16.9c0 .786-.315 1.219-1.451 2.005l-9.727 6.88c-3.45 0-6.94-1.416-9.842-1.416-1.804 0-2.784.354-4.431 1.612L1.902 27.2zM20.49 11.828c0-.865.587-1.454 1.49-1.454.902 0 1.49.59 1.49 1.454 0 .865-.588 1.455-1.49 1.455-.903 0-1.49-.59-1.49-1.455zM7.98 10.374c.901 0 1.49.59 1.49 1.454 0 .865-.589 1.455-1.49 1.455-.903 0-1.491-.59-1.491-1.455 0-.865.588-1.454 1.491-1.454z"/>
</symbol><symbol id="ico-car-sync" viewBox="0 0 30 30">
  <path d="M20.207 15.895c-.689 0-1.137.449-1.137 1.108s.448 1.108 1.137 1.108c.69 0 1.139-.449 1.139-1.108s-.45-1.108-1.139-1.108zm-10.69 0c-.69 0-1.139.449-1.139 1.108s.45 1.108 1.138 1.108c.69 0 1.139-.449 1.139-1.108s-.45-1.108-1.139-1.108zm2.126 1.108h6.438c0-1.198.899-2.096 2.127-2.096 1.228 0 2.126.898 2.126 2.096s-.898 2.096-2.127 2.096c-.838 0-1.527-.419-1.887-1.078h-6.917c-.36.659-1.048 1.078-1.887 1.078-1.228 0-2.126-.898-2.126-2.096s.898-2.096 2.126-2.096c1.229 0 2.127.898 2.127 2.096zm-6.409-1.857c0-1.467.09-1.677 1.557-3.414 1.497-1.796 2.216-2.216 3.803-2.216h3.804c1.707 0 2.636.3 3.983 1.228l2.276 1.707 1.468.36c1.587.359 2.334 1.287 2.334 2.814 0 .749-.209 1.408-.599 1.947l-.837-.599c.299-.449.389-.779.389-1.348 0-1.048-.54-1.617-1.886-1.946l-1.468-.359-2.216-1.677c-1.078-.809-2.006-1.108-3.444-1.108h-3.803c-1.229 0-1.678.299-3.055 1.946-1.138 1.378-1.258 1.557-1.258 2.815v.629c0 .449.09.719.36.988l-.719.659c-.48-.419-.689-.928-.689-1.647v-.779zm22.52-.299h-1.138c0-7.127-4.343-11.769-11.739-11.769-3.654 0-6.828 1.497-9.074 3.863.928-.24 1.856-.539 2.815-.898l.808.718c-1.557.569-2.785.929-4.582 1.228l-.688-.629c.15-1.407.48-2.845 1.048-4.492l.808.749c-.449 1.258-.718 1.946-.898 2.605C7.54 3.647 10.954 2 14.878 2c8.055 0 12.877 5.121 12.877 12.847zm-3.114 8.595c-2.396 2.545-5.66 4.222-9.463 4.222C6.94 27.664 2 22.543 2 14.817h1.137c0 7.127 4.463 11.769 12.04 11.769 3.534 0 6.558-1.527 8.774-3.863a27.77 27.77 0 0 0-2.816.898l-.808-.719c1.557-.568 2.785-.928 4.582-1.227l.689.629c-.15 1.407-.48 2.844-1.049 4.492l-.808-.749c.45-1.258.718-1.947.899-2.605z"/>
</symbol><symbol id="ico-chat" viewBox="0 0 30 30">
  <path d="M24.388 11.171v7.553h.63c2.045 0 3.094-1.311 3.094-3.724 0-2.57-1.05-3.829-3.095-3.829h-.629zM5.664 18.724V11.17h-.68c-2.045 0-3.096 1.26-3.096 3.829 0 2.413 1.05 3.724 3.096 3.724h.68zm6.506 11.171c-1.628 0-2.782-1.101-2.782-2.465-3.357-1.049-5.348-3.461-5.662-6.923C1.364 19.983 0 17.99 0 15c0-3.566 1.838-5.664 4.984-5.664h.68C5.664 3.67 9.338 0 15.052 0c5.717 0 9.389 3.671 9.389 9.336h.576C28.164 9.336 30 11.434 30 15c0 3.462-1.888 5.612-4.983 5.612H22.5V10.49c0-5.717-2.465-8.55-7.448-8.55-4.982 0-7.5 2.885-7.5 8.55v10.122H5.614c.314 2.622 1.624 4.248 4.141 5.035.42-.84 1.259-1.311 2.415-1.311 1.729 0 2.83 1.101 2.83 2.832 0 1.626-1.101 2.727-2.83 2.727z"/>
</symbol><symbol id="ico-ellipsis-v" viewBox="0 0 30 30">
  <g transform="translate(13 6)">
    <rect width="3.6" height="3.6" rx="1.8"/>
    <rect width="3.6" height="3.6" y="7.2" rx="1.8"/>
    <rect width="3.6" height="3.6" y="14.4" rx="1.8"/>
  </g>
</symbol><symbol id="ico-file-pdf" viewBox="0 0 30 30">
  <path d="M19.949 27.85a42.597 42.597 0 0 0 4.626-4.579h-4.626v4.58zm.56-15.794v3.879h-1.214v-3.879h-.842v-1.075h.842v-.327c0-1.121.514-1.682 1.495-1.682.327 0 .654.047.934.14v1.028a1.834 1.834 0 0 0-.654-.14c-.42 0-.56.14-.56.7v.281h1.214v1.075H20.51zm-4.906 2.804c.28 0 .56-.094.888-.374V12.15c-.234-.047-.42-.094-.654-.094-.748 0-1.028.374-1.028 1.495 0 .982.187 1.309.794 1.309zm.981.7c-.374.281-.794.468-1.261.468-1.169 0-1.73-.841-1.73-2.477 0-1.822.655-2.616 2.244-2.616.233 0 .42.046.654.093V9.065h1.215v6.87h-1.122v-.374zm-6.588-5.14v1.963h.98c.515 0 .795-.374.795-.981 0-.701-.233-.981-.794-.981h-.981zM8.687 9.253h2.29c1.308 0 2.103.841 2.103 2.15 0 1.402-.748 2.15-2.103 2.15h-.981v2.383H8.687V9.252zm9.673 19.16V21.73h6.636V1.589h-20V28.41H18.36zM3.36 30V0h23.271v23.318C24.855 25.56 22.566 27.85 19.996 30H3.36z"/>
</symbol><symbol id="ico-file" viewBox="0 0 30 30">
  <path d="M24.575 6.729c-1.402-1.589-2.944-3.178-4.626-4.58v4.58h4.626zM8.36 25.047h13.271v-1.59H8.36v1.59zm0-5h13.271v-1.59H8.36v1.59zm0-5.047h13.271v-1.589H8.36V15zm16.636 13.411V8.271H18.36V1.589H4.996V28.41h20zM26.63 6.682V30H3.36V0h16.636c2.523 2.103 4.813 4.393 6.635 6.682z"/>
</symbol><symbol id="ico-fill-drip" viewBox="0 0 30 30">
  <path d="M24.422 24.613c0-.874-.235-1.546-1.21-3.63-.977 1.915-1.246 2.69-1.246 3.63 0 .74.505 1.244 1.245 1.244.74 0 1.211-.47 1.211-1.244zm-3.633 0c0-1.075.437-2.285 1.817-4.807h1.21c1.346 2.622 1.784 3.765 1.784 4.807 0 1.48-.909 2.387-2.389 2.387-1.514 0-2.422-.908-2.422-2.387zm-1.884-19.63 1.144-.404 4.575 12.236-1.11.437-4.61-12.27zm-5.888 6.353c-.774 0-1.21.47-1.21 1.277 0 .807.47 1.277 1.21 1.277.774 0 1.211-.437 1.211-1.277 0-.84-.437-1.277-1.211-1.277zm0 3.663c-1.446 0-2.355-.907-2.355-2.386 0-1.243.672-2.117 1.75-2.32V3h1.177v7.294c1.11.202 1.783 1.042 1.783 2.319 0 1.48-.909 2.386-2.355 2.386zm-6.964-3.898c-.808.302-1.043.773-.74 1.58l2.96 7.831c.303.807.774 1.009 1.582.706l11.001-4.202-3.802-10.084-2.254.874V6.53l2.96-1.142 4.643 12.302-12.145 4.604c-1.514.572-2.49.135-3.061-1.377l-2.961-7.833c-.572-1.512-.101-2.52 1.38-3.092L11.2 7.874V9.15L6.053 11.1z"/>
</symbol><symbol id="ico-home" viewBox="0 0 34.7 34.7">
  <path d="M17.31 17.576a70.84 70.84 0 0 0 2.811-5.438 56.833 56.833 0 0 0-2.86-5.438 71.018 71.018 0 0 0-2.813 5.438 56.833 56.833 0 0 0 2.861 5.438zm-4.898-5.438c1.31-2.767 2.521-5.05 3.733-6.943a9.332 9.332 0 0 1 2.328 0c1.503 2.282 2.666 4.516 3.733 6.943-1.067 2.428-2.23 4.661-3.733 6.943a9.332 9.332 0 0 1-2.328 0c-1.212-1.893-2.424-4.175-3.733-6.943zm-3.83 20.878h17.454V1.65H8.582v31.365zm-1.697 0V0h20.848v33.016h6.934v1.65H0v-1.65h6.885z"/>
</symbol><symbol id="ico-info" viewBox="0 0 30 30">
  <path d="M28.5 12.6c-.7 0-1.1.7-1 1.3.63 12.05-14.4 18.01-22.2 8.8C1.7 18.4 1.5 12.4 4.6 8c3.1-4.4 8.9-6.5 14.1-4.8.4.1.9 0 1.2-.2.3-.2.5-.8.4-1.2-.1-.4-.4-.8-.8-.9C14-.9 7.8.8 3.9 5.1c-8.96 10.03-.99 25.84 12.4 24.6 8.2-.7 14.3-7.8 13.5-16-.1-.62-.67-1.16-1.3-1.1z"/>
  <path d="M15 11.7c-.7 0-1.3.5-1.3 1.2v9c0 .6.6 1.2 1.2 1.2s1.3-.6 1.3-1.2v-9c0-.7-.6-1.2-1.3-1.2zm1.2-3.4c0-.7-.6-1.2-1.3-1.2s-1.2.5-1.2 1.2.6 1.2 1.2 1.2 1.3-.5 1.3-1.2z"/>
</symbol><symbol id="ico-map-marker" viewBox="0 0 30 30">
  <path d="M17.996 11.316c0-1.842-1.156-3-2.996-3s-2.996 1.157-2.996 3c0 1.841 1.156 3 2.996 3s2.996-1.158 2.996-3m1.788 0c0 2.684-2.05 4.738-4.784 4.738S10.216 14 10.216 11.316c0-2.738 2.05-4.738 4.784-4.738s4.784 2.001 4.784 4.738m4.574-.526c0-5.316-3.785-9-9.358-9s-9.358 3.684-9.358 9c0 4.789 3.523 11.42 9.358 17.474 5.835-6.054 9.358-12.685 9.358-17.474m-20.608 0C3.75 4.318 8.271 0 15 0s11.25 4.316 11.25 10.79c0 5.315-3.995 12.737-10.304 19.21h-1.892C7.745 23.526 3.75 16.105 3.75 10.79"/>
</symbol><symbol id="ico-play" viewBox="0 0 30 30">
  <path d="M5 27c7.267-3.361 12.931-6.617 21-12.026C18.038 9.67 12.214 6.36 5 3v24zM3 0c9.106 4.098 15.463 7.67 25 14.028v1.944C18.463 22.329 12.106 25.902 3 30V0z"/>
</symbol><symbol id="ico-round-battery" viewBox="0 0 82 82">
  
  <g transform="translate(1 1)">
    <circle cx="40" cy="40" r="40"/>
    <mask id="ico-round-battery-b">
      <use xlink:href="#ico-round-battery-a"/>
    </mask>
    <g mask="url(#ico-round-battery-b)">
      <path d="M0 0h80v80H0z"/>
    </g>
    <mask id="ico-round-battery-d">
      <use xlink:href="#ico-round-battery-c"/>
    </mask>
    <path d="M44.26 30.22h4.32v-.96c0-1.68-.54-2.22-2.16-2.22s-2.16.54-2.16 2.22v.96Zm-5.28 19.8-.78-.24.96-5.58h-2.58l1.32-7.62h3.18l-1.74 5.58h3.54l-3.9 7.86Zm-7.56-19.8h4.32v-.96c0-1.68-.54-2.22-2.16-2.22s-2.16.54-2.16 2.22v.96ZM27.1 53.74h25.8V32.26H27.1v21.48Zm15.06-25.08c0-2.4 1.5-3.66 4.26-3.66s4.26 1.26 4.26 3.66v1.56H55v25.56H25V30.22h4.32v-1.56c0-2.4 1.5-3.66 4.26-3.66s4.26 1.26 4.26 3.66v1.56h4.32v-1.56Z" mask="url(#ico-round-battery-d)"/>
  </g>
</symbol><symbol id="ico-round-carpark" viewBox="0 0 82 82">
  
  <g transform="translate(1 1)">
    <circle cx="40" cy="40" r="40"/>
    <mask id="ico-round-carpark-b">
      <use xlink:href="#ico-round-carpark-a"/>
    </mask>
    <g mask="url(#ico-round-carpark-b)">
      <path d="M0 0h80v80H0z"/>
    </g>
    <mask id="ico-round-carpark-d">
      <use xlink:href="#ico-round-carpark-c"/>
    </mask>
    <path d="M46.316 46.368c-1.21 0-2 .79-2 1.948s.79 1.947 2 1.947 2-.79 2-1.947c0-1.158-.79-1.948-2-1.948ZM37.106 28c4.315 0 6.368.579 8.894 2.421l4.684 3.474 3.158.894c3.158.895 4.947 2.685 6.158 6h-1.842c-1.158-2.473-2.58-3.684-5.369-4.473l-3.157-.895L45.052 32c-2.157-1.579-4.315-2.21-7.947-2.21h-5.79V28h5.79Zm-1.053 3.579c4.158 0 6.263.579 8.894 2.579l3.948 2.947 3.263.895c3.105.842 4.737 2.895 5.21 6.526h-1.842c-.473-2.842-1.737-4.263-4.42-5l-3.264-.894L44 35.737c-2.263-1.737-4.474-2.369-7.947-2.369h-6.58v-1.79h6.58Zm-8.527 14.79c-1.21 0-2 .789-2 1.947s.79 1.947 2 1.947 2-.79 2-1.947c0-1.158-.79-1.948-2-1.948Zm15.053 1.947c0-2.105 1.579-3.684 3.737-3.684 2.158 0 3.737 1.579 3.737 3.684 0 2.105-1.58 3.684-3.737 3.684-1.474 0-2.684-.737-3.316-1.895H30.842C30.211 51.263 29 52 27.526 52c-2.158 0-3.737-1.579-3.737-3.684 0-2.105 1.58-3.684 3.737-3.684 2.158 0 3.737 1.579 3.737 3.684H42.58ZM20 45.053c0-2.58.158-2.948 2.737-6 2.631-3.158 3.895-3.895 6.684-3.895h6.684c3 0 4.632.526 7 2.158l4 3 2.58.631c2.789.632 4.104 2.264 4.104 4.948 0 1.316-.368 2.473-1.052 3.42l-1.474-1.052c.526-.79.684-1.368.684-2.368 0-1.842-.947-2.842-3.315-3.421l-2.58-.632-3.894-2.947c-1.895-1.421-3.526-1.948-6.053-1.948h-6.684c-2.158 0-2.947.527-5.368 3.421-2 2.421-2.21 2.737-2.21 4.948v1.105c0 .79.157 1.263.63 1.737l-1.262 1.158C20.368 48.579 20 47.684 20 46.42v-1.368Z" mask="url(#ico-round-carpark-d)"/>
  </g>
</symbol><symbol id="ico-round-eco" viewBox="0 0 82 82">
  
  <g transform="translate(1 1)">
    <circle cx="40" cy="40" r="40"/>
    <g filter="url(#ico-round-eco-a)">
      <g transform="translate(19.38 18.537)">
        <path d="M40.527 20.997H38.5a14.175 14.175 0 0 0-5.328-7.092l.49-4.508a.844.844 0 0 0-1.039-.912l-8.214 1.992c-.952-.13-1.91-.194-2.87-.194a19.63 19.63 0 0 0-12.251 4.07 14.446 14.446 0 0 0-4.222 5.31A3.681 3.681 0 0 1 2.94 13.23a.844.844 0 0 0-1.115-1.267 5.378 5.378 0 0 0 2.643 9.338 11.82 11.82 0 0 0-.465 3.276c0 4.07 2.094 7.894 5.775 10.604l-.743 1.292a2.533 2.533 0 0 0-.185 2.043c.203.664.645 1.23 1.24 1.587l1.731.996a2.533 2.533 0 0 0 1.96.254 2.533 2.533 0 0 0 1.578-1.233l.962-1.9c3.127.792 6.393.859 9.55.195l.253.937a2.592 2.592 0 0 0 3.073 1.967l1.967-.43a2.6 2.6 0 0 0 1.857-3.167l-.439-2.06a15.07 15.07 0 0 0 5.066-5.428h2.879A2.575 2.575 0 0 0 43.06 27.7v-4.129a2.575 2.575 0 0 0-2.533-2.575Zm-8.68-10.587-.27 2.457a18.97 18.97 0 0 0-3.486-1.545l3.757-.912Zm9.524 17.265a.844.844 0 0 1-.844.845H37.15a.844.844 0 0 0-.118 0 .844.844 0 0 0-.186 0c-.094.05-.184.107-.27.169a.844.844 0 0 0-.11.152.794.794 0 0 0-.076.1 13.39 13.39 0 0 1-5.167 5.53.844.844 0 0 0-.135.127.844.844 0 0 0-.101.102 3.656 3.656 0 0 0-.127.295.844.844 0 0 0 0 .144.844.844 0 0 0 0 .186l.566 2.625a.954.954 0 0 1-.566 1.157l-2.026.574a.912.912 0 0 1-1.064-.726l-.464-1.748a.844.844 0 0 0-.068-.126.844.844 0 0 0-.084-.17.844.844 0 0 0-.102-.084.844.844 0 0 0-.143-.126h-.11a.844.844 0 0 0-.194-.068h-.127a.844.844 0 0 0-.202 0 19.883 19.883 0 0 1-10.132-.177h-.422l-.152.05-.135.077-.127.1a.844.844 0 0 0-.101.128.794.794 0 0 0-.06.067l-1.249 2.465a.844.844 0 0 1-.531.406.844.844 0 0 1-.676-.093l-1.74-1.005a1.123 1.123 0 0 1-.472-.625.844.844 0 0 1 0-.692l1.131-1.95a.794.794 0 0 0 .043-.135.844.844 0 0 0 .05-.16.844.844 0 0 0 0-.161.498.498 0 0 0-.05-.313.844.844 0 0 0-.068-.143.844.844 0 0 0-.118-.118.844.844 0 0 0-.101-.102c-3.605-2.406-5.674-5.91-5.674-9.658 0-1.28.24-2.55.71-3.74v-.06a12.605 12.605 0 0 1 3.908-5.065 17.94 17.94 0 0 1 11.204-3.698c.938 0 1.875.068 2.803.203h.042a17.654 17.654 0 0 1 7.421 2.811 12.436 12.436 0 0 1 5.26 7.058v.06a.89.89 0 0 0 .076.151.912.912 0 0 0 .338.33l.143.05h2.93c.466 0 .844.378.844.844v4.137Z"/>
        <path d="M21.784 14.665a9.498 9.498 0 0 0-5.97 2.085.85.85 0 0 0 1.073 1.318 7.91 7.91 0 0 1 10.343.506.845.845 0 1 0 1.165-1.224 9.549 9.549 0 0 0-6.611-2.685Z"/>
        <circle cx="33.41" cy="22.399" r="1.174"/>
        <path d="M21.362 7.7a3.85 3.85 0 1 0 0-7.7 3.85 3.85 0 0 0 0 7.7Zm0-6.011a2.161 2.161 0 1 1 0 4.322 2.161 2.161 0 0 1 0-4.322Z"/>
      </g>
    </g>
  </g>
</symbol><symbol id="ico-round-electric" viewBox="0 0 82 82">
  
  <g transform="translate(1 1)">
    <circle cx="40" cy="40" r="40"/>
    <mask id="ico-round-electric-b">
      <use xlink:href="#ico-round-electric-a"/>
    </mask>
    <g mask="url(#ico-round-electric-b)">
      <path d="M0 0h80v80H0z"/>
    </g>
    <mask id="ico-round-electric-d">
      <use xlink:href="#ico-round-electric-c"/>
    </mask>
    <path d="M52.765 49.49c-1.172 0-1.936.714-1.936 1.887 0 1.12.764 1.885 1.936 1.885s1.936-.714 1.936-1.885c.001-1.173-.713-1.887-1.936-1.887Zm-9.02-21.911H41.4c-2.14 0-3.363 1.02-3.363 2.804 0 1.884 1.173 2.904 3.363 2.904h2.344v-5.708ZM34.574 49.49c-1.172 0-1.936.714-1.936 1.887 0 1.12.764 1.885 1.936 1.885s1.936-.714 1.936-1.885c0-1.173-.714-1.887-1.936-1.887Zm14.573 1.887c0-2.141 1.478-3.567 3.618-3.567 2.192 0 3.619 1.426 3.619 3.567 0 2.14-1.478 3.566-3.619 3.566-1.477 0-2.65-.714-3.21-1.835H37.784c-.56 1.121-1.733 1.835-3.21 1.835-2.14 0-3.618-1.478-3.618-3.566 0-2.141 1.477-3.567 3.618-3.567 2.191 0 3.619 1.426 3.619 3.567h10.954Zm-21.86-2.192C22.802 48.32 20 44.65 20 39.504c0-6.166 3.873-9.988 10.038-9.988h6.369C36.765 27.223 38.497 26 41.4 26h4.026v1.579h3.77v1.682h-3.77v2.344h3.77v1.681h-3.77v1.528H41.4c-2.803 0-4.636-1.325-4.994-3.566h-6.368c-5.045 0-8.256 3.16-8.256 8.254 0 4.128 1.988 6.93 5.503 7.9.102-1.785.459-2.344 2.65-4.943 2.548-3.058 3.77-3.77 6.47-3.77h6.472c2.701 0 4.281.51 6.777 2.088l3.873 2.905 2.497.612c2.701.612 3.975 2.192 3.975 4.79 0 1.275-.357 2.394-1.02 3.312l-1.426-1.018c.51-.765.663-1.326.663-2.294 0-1.784-.918-2.75-3.211-3.31l-2.496-.613-3.771-2.853c-1.833-1.376-3.414-1.887-5.86-1.887h-6.471c-2.089 0-2.853.511-5.197 3.313-2.038 2.496-2.141 2.752-2.141 4.79v1.071c0 .764.153 1.222.612 1.68l-1.223 1.12c-.815-.713-1.172-1.578-1.172-2.801v-.409Z" mask="url(#ico-round-electric-d)"/>
  </g>
</symbol><symbol id="ico-round-leaf" viewBox="0 0 82 82">
  
  <circle cx="40" cy="40" r="40" transform="translate(1 1)"/>
  <g transform="translate(1 1)">
    <mask id="ico-round-leaf-b">
      <use xlink:href="#ico-round-leaf-a"/>
    </mask>
    <g mask="url(#ico-round-leaf-b)">
      <path d="M0 0h80v80H0z"/>
    </g>
  </g>
  <path d="M34.505 47.426c1.718 2.21 4.614 3.584 8.05 3.584 8.198 0 13.156-6.48 14.678-19.341H47.219c-9.032 0-14.481 3.976-14.481 10.554a8.49 8.49 0 0 0 .834 3.73 161.053 161.053 0 0 0 12.469-5.497l.687 1.472a144.682 144.682 0 0 1-12.223 5.498m8.05 5.253c-4.221 0-7.756-1.767-9.72-4.614-2.944 1.08-5.792 2.061-8.393 2.798L24 49.243c2.65-.786 5.302-1.67 7.952-2.7a10.317 10.317 0 0 1-.932-4.32C31.02 34.713 37.254 30 47.219 30h10.505L59 31.374C57.331 45.561 51.833 52.68 42.555 52.68"/>
</symbol><symbol id="ico-round-trophy" viewBox="0 0 82 82">
  
  <g transform="translate(1 1)">
    <circle cx="40" cy="40" r="40"/>
    <mask id="ico-round-trophy-b">
      <use xlink:href="#ico-round-trophy-a"/>
    </mask>
    <g mask="url(#ico-round-trophy-b)">
      <path d="M0 0h80v80H0z"/>
    </g>
    <mask id="ico-round-trophy-e">
      <use xlink:href="#ico-round-trophy-c"/>
    </mask>
    <g filter="url(#ico-round-trophy-d)">
      <g mask="url(#ico-round-trophy-e)">
        <g transform="translate(26.667 24.598)">
          <mask id="ico-round-trophy-g">
            <use xlink:href="#ico-round-trophy-f"/>
          </mask>
          <g mask="url(#ico-round-trophy-g)">
            <path d="M-5.333-3.264h40v40h-40z"/>
          </g>
        </g>
      </g>
    </g>
  </g>
</symbol><symbol id="ico-round_carkey" viewBox="0 0 82 82">
  
  <g transform="translate(1 1)">
    <circle cx="40" cy="40" r="40"/>
    <mask id="ico-round_carkey-b">
      <use xlink:href="#ico-round_carkey-a"/>
    </mask>
    <g mask="url(#ico-round_carkey-b)">
      <path d="M0 0h80v80H0z"/>
    </g>
    <mask id="ico-round_carkey-d">
      <use xlink:href="#ico-round_carkey-c"/>
    </mask>
    <path d="M34.373 35.162c1.176 0 2.058-.589 2.45-1.522-1.617-.147-2.843-.343-3.627-.785-.147-.835.245-1.473 1.079-1.424.93.491 2.598.59 5.343.59 4.558 0 6.176-.492 6.176-1.866v-1.62c0-1.473-1.274-1.866-6.176-1.866-4.56 0-5.98.344-6.177 1.571.294-.049.637-.098.932-.098.49 0 .93.049 1.323.196.147-.049.343-.098.588-.098.883 0 1.226.344 1.226 1.178 0 .786-.441 1.179-1.226 1.179-.49 0-.833-.197-.98-.54-.245-.148-.588-.197-.931-.197-1.618 0-2.648 1.08-2.648 2.651 0 1.571 1.03 2.651 2.648 2.651Zm4.215-1.473c-.49 1.866-2.108 3.191-4.215 3.191-2.55 0-4.363-1.865-4.363-4.369 0-1.522.637-2.749 1.715-3.535v-.441c0-2.7 1.814-3.535 7.893-3.535 6.078 0 7.892.835 7.892 3.535h7.01v1.62h-7.01c0 2.602-2.108 3.534-7.892 3.534h-1.03ZM24.128 54.75 23 53.523 25.059 52c2.402-1.817 4.166-2.455 6.666-2.455 3.383 0 7.353 1.571 11.52 1.768l12.353-8.493c.49-.344.686-.59.686-.933 0-.638-.49-1.178-1.127-1.178-.294 0-.49.049-.932.343l-5.539 3.731c-.44 1.031-1.421 1.67-2.843 1.67h-7.108v-1.719h7.108c.833 0 1.324-.393 1.324-1.129s-.49-1.13-1.324-1.13H33.735c-4.411 0-5.539.345-7.99 2.26l-1.618 1.276L23 44.784l1.618-1.276c2.794-2.21 4.46-2.7 9.166-2.7h12.06c1.42 0 2.548.736 2.891 1.914l4.755-3.142c.588-.392 1.03-.54 1.667-.54A2.847 2.847 0 0 1 58 41.888c0 .982-.392 1.522-1.814 2.504l-12.157 8.59c-4.313 0-8.676-1.767-12.304-1.767-2.254 0-3.48.442-5.539 2.013l-2.059 1.522Z" mask="url(#ico-round_carkey-d)"/>
  </g>
</symbol><symbol id="ico-star" viewBox="0 0 30 30">
  <path d="M7.208 30.052c-.46 0-.922-.14-1.3-.393-.736-.608-1.046-1.388-.942-2.209l1.312-8.147L.679 13.54c-.565-.462-.811-1.346-.558-2.228.228-.795.961-1.413 1.826-1.537l7.599-1.186 3.413-7.31c.294-.79 1.089-1.33 2.04-1.33a2.248 2.248 0 0 1 2.053 1.365l3.397 7.276 7.612 1.188c.852.123 1.585.741 1.813 1.536.212.733.095 1.544-.294 2.065l-5.69 5.868 1.308 8.111c.117.922-.254 1.79-.938 2.247a2.15 2.15 0 0 1-1.306.418c-.294 0-.739 0-1.189-.301l-6.709-3.724-6.787 3.77c-.248.167-.643.284-1.061.284zm0-2.156v1.059l.003-1.055a.028.028 0 0 1 .009.007l-.009-.047 7.845-4.373 7.812 4.342h.088l1.162-.3-1.081.174-1.483-9.196 6.233-6.414a.52.52 0 0 0-.018-.174l-8.812-1.344-3.907-8.369-4.011 8.368-8.767 1.369 6.343 6.62-1.481 9.197c-.002.024 0 .069.074.136z"/>
</symbol><symbol id="ico-steering-wheel" viewBox="0 0 30 30">
  <path d="M17.269 25.336c4.034-.714 6.933-3.445 7.857-7.521h-4.832c-.672 1.134-1.765 2.101-3.025 2.689v4.832zm9.58-8.949c-.588 6.092-4.958 10.294-11.092 10.63v-7.563c1.597-.294 3.109-1.555 3.571-3.067h7.521zm-14.076 8.949v-4.832a6.4 6.4 0 0 1-3.067-2.689H4.832c.924 4.034 3.823 6.807 7.941 7.521zm7.731-11.807h4.832C24.748 7.983 20.714 4.454 15 4.454c-5.756 0-9.832 3.529-10.42 9.076h4.916c.63-1.681 2.227-2.353 5.504-2.353s4.874.672 5.504 2.352zm-6.218 13.488c-6.218-.294-10.63-4.454-11.218-10.63h7.605c.462 1.513 1.975 2.773 3.613 3.067v7.563zM15 12.605c-3.235 0-4.16.504-4.412 2.353H2.983C2.983 7.899 7.899 2.983 15 2.983c7.017 0 11.933 4.916 11.933 11.975h-7.521c-.252-1.849-1.177-2.353-4.412-2.353zm0 15.882c8.109 0 13.445-5.378 13.445-13.529 0-8.109-5.336-13.445-13.445-13.445S1.555 6.849 1.555 14.958c0 8.193 5.336 13.529 13.445 13.529zM0 14.958C0 5.966 6.008 0 15 0c9.076 0 15 5.924 15 14.958C30 24.034 24.034 30 15 30S0 23.992 0 14.958z"/>
</symbol><symbol id="ico-times" viewBox="0 0 30 30">
  <path d="M29.999 2.512 27.5.012 14.999 12.504 2.498.012l-2.497 2.5L12.5 15.001.001 27.488l2.497 2.5 12.501-12.49L27.5 29.988l2.497-2.5-12.499-12.487z"/>
</symbol><symbol id="ico-trash" viewBox="0 0 30 30">
  <path d="M16.73 7.212h1.705v19.084H16.73V7.212zm-4.336-3.457h5.261V1.904h-5.261v1.851zm-.877 3.457h1.705v19.084h-1.705V7.212zm13.057 0V29.75h-19.1V7.212H7.18v20.883h15.689V7.212h1.705zM3.721 3.755h6.968V.25h8.672v3.505h6.919V5.41H3.721V3.755z"/>
</symbol><symbol id="ico-trophy" viewBox="0 0 30 30">
  <path d="M21.914 11.898c2.438-.463 3.615-2.273 3.615-5.22V5.92h-2.942v.758c0 2.02-.253 3.789-.673 5.22zm-9.877 13.64h5.968v1.431h-5.968v-1.431zm-1.724-1.516-.882 4.505h11.18l-.883-4.505h-9.415zm4.708-8.167c3.951 0 6.095-3.2 6.095-9.135V2.931H8.968v3.747c0 5.894 2.144 9.177 6.053 9.177zm-6.81-3.915c-.461-1.473-.714-3.241-.714-5.262V5.92H4.471v.758c0 2.989 1.219 4.8 3.74 5.262zm14.377-7.45H27v2.189c0 3.915-2.102 6.44-5.674 6.736-1.135 2.315-3.027 3.62-5.548 3.83v5.263h5.211L22.546 30H7.497l1.556-7.493h5.211v-5.263c-2.48-.21-4.329-1.515-5.464-3.83C5.144 13.16 3 10.635 3 6.678v-2.19h4.497V1.5h15.09v2.989z"/>
</symbol><symbol id="ico-user-chat" viewBox="0 0 30 27">
  <path d="M16.555 13.445c-2.019-1.344-3.027-3.361-3.027-5.966C13.528 3.025 16.89 0 21.765 0 26.639 0 30 3.067 30 7.479s-3.361 7.479-8.235 7.479a8.65 8.65 0 0 1-2.017-.21 30.57 30.57 0 0 1-3.235 2.9l-.968-1.135c1.388-1.093 2.564-2.101 3.699-3.32 1.049.252 1.638.336 2.52.336 4.076 0 6.764-2.395 6.764-6.05s-2.688-6.05-6.763-6.05C17.647 1.429 15 3.824 15 7.479c0 2.143.797 3.74 2.521 5a3.522 3.522 0 0 1-.966.966zm-9.076-1.512c-1.723 0-3.024 1.302-3.024 3.067 0 1.765 1.301 3.067 3.024 3.067s3.025-1.302 3.025-3.067c0-1.765-1.302-3.067-3.025-3.067zM1.471 26.975H0v-.925c0-4.033 1.597-6.596 4.581-7.563C3.571 17.69 2.983 16.43 2.983 15c0-2.563 1.931-4.496 4.496-4.496 2.562 0 4.496 1.933 4.496 4.496 0 1.429-.588 2.647-1.597 3.487 3.024.967 4.622 3.53 4.622 7.563v.925h-1.472v-.883c0-4.285-2.1-6.596-6.049-6.596-3.825 0-6.008 2.395-6.008 6.596v.883z"/>
</symbol><symbol id="ico-user" viewBox="0 0 30 30">
  <path d="M15 13.234c3.434 0 5.403-2.27 5.403-5.449S18.434 2.337 15 2.337s-5.404 2.27-5.404 5.449 1.97 5.448 5.404 5.448zM4.193 29.429H2.375v-2.623c0-7.012 2.929-11.553 8.333-13.016-1.868-1.261-2.929-3.431-2.929-6.003 0-4.187 2.778-7.214 7.222-7.214s7.222 3.027 7.222 7.214c0 2.573-1.06 4.742-2.879 6.003 5.404 1.463 8.282 5.953 8.282 13.016v2.623h-1.818v-2.522C25.807 19.238 21.967 15 15 15 8.082 15 4.193 19.288 4.193 26.906v2.523z"/>
</symbol></svg>